<?xml version="1.0" encoding="UTF-8"?>
<svg width="1240px" height="15px" viewBox="0 0 1240 15" version="1.1" xmlns="http://www.w3.org/2000/svg" xmlns:xlink="http://www.w3.org/1999/xlink">
    <!-- Generator: Sketch 46.2 (44496) - http://www.bohemiancoding.com/sketch -->
    <title>Elements/Illustration/Footer/v1</title>
    <desc>Created with Sketch.</desc>
    <defs>
        <polygon id="path-1" points="40.8088233 15 0.299666667 15 0.299666667 0.000625 40.8088233 0.000625 40.8088233 15"></polygon>
        <polygon id="path-3" points="0.602321285 15 15.6989478 15 15.6989478 0.000625 0.602321285 0.000625 0.602321285 15"></polygon>
        <polygon id="path-5" points="0.0862449799 15 14.5728313 15 14.5728313 0.000625 0.0862449799 0.000625"></polygon>
        <polygon id="path-7" points="0.58526506 15 14.849 15 14.849 0.000625 0.58526506 0.000625"></polygon>
        <polygon id="path-9" points="0.015437751 15 14.629012 15 14.629012 0.000625 0.015437751 0.000625 0.015437751 15"></polygon>
        <polygon id="path-11" points="0.924522088 15 21.2923936 15 21.2923936 0.000625 0.924522088 0.000625"></polygon>
        <polygon id="path-13" points="0.0643333333 15 6.48469478 15 6.48469478 0.000625 0.0643333333 0.000625 0.0643333333 15"></polygon>
        <polygon id="path-15" points="0 15 620 15 620 0 0 0"></polygon>
        <polygon id="path-17" points="40.8088233 15 0.299666667 15 0.299666667 0.000625 40.8088233 0.000625 40.8088233 15"></polygon>
        <polygon id="path-19" points="0.602321285 15 15.6989478 15 15.6989478 0.000625 0.602321285 0.000625 0.602321285 15"></polygon>
        <polygon id="path-21" points="0.0862449799 15 14.5728313 15 14.5728313 0.000625 0.0862449799 0.000625"></polygon>
        <polygon id="path-23" points="0.58526506 15 14.849 15 14.849 0.000625 0.58526506 0.000625"></polygon>
        <polygon id="path-25" points="0.015437751 15 14.629012 15 14.629012 0.000625 0.015437751 0.000625 0.015437751 15"></polygon>
        <polygon id="path-27" points="0.924522088 15 21.2923936 15 21.2923936 0.000625 0.924522088 0.000625"></polygon>
        <polygon id="path-29" points="0.0643333333 15 6.48469478 15 6.48469478 0.000625 0.0643333333 0.000625 0.0643333333 15"></polygon>
        <polygon id="path-31" points="0 15 620 15 620 0 0 0"></polygon>
    </defs>
    <g id="🔣-Symbols" stroke="none" stroke-width="1" fill="none" fill-rule="evenodd">
        <g id="Components/Footer/Desktop">
            <g id="Elements/Illustration/Footer">
                <g id="Illustration">
                    <g id="Page-1">
                        <polygon id="Fill-1" fill="#4182C3" points="0 15 620 15 620 0 0 0"></polygon>
                        <g id="Group-52">
                            <g id="Group-4" transform="translate(573.935743, 0.000000)">
                                <mask id="mask-2" fill="white">
                                    <use xlink:href="#path-1"></use>
                                </mask>
                                <g id="Clip-3"></g>
                                <path d="M40.8088233,0.000625 L0.632076305,0.000625 L0.299666667,15.000625 L28.7088635,15.000625 C31.0382209,8.499375 35.9098273,2.714375 40.8088233,0.000625" id="Fill-2" fill="#336194" mask="url(#mask-2)"></path>
                            </g>
                            <g id="Group-7" transform="translate(256.465863, 0.000000)">
                                <mask id="mask-4" fill="white">
                                    <use xlink:href="#path-3"></use>
                                </mask>
                                <g id="Clip-6"></g>
                                <polygon id="Fill-5" fill="#4182C3" mask="url(#mask-4)" points="15.6989478 0.000625 0.983285141 0.000625 0.872481928 2.768125 0.602321285 15.000625 15.6989478 15.000625 15.6989478 3.974375"></polygon>
                            </g>
                            <g id="Group-10" transform="translate(559.995984, 0.000000)">
                                <mask id="mask-6" fill="white">
                                    <use xlink:href="#path-5"></use>
                                </mask>
                                <g id="Clip-9"></g>
                                <polygon id="Fill-8" fill="#CEE1EF" mask="url(#mask-6)" points="0.0862449799 0.000625 0.0862449799 4.541875 0.0862449799 15.000625 14.2391767 15.000625 14.5728313 0.000625"></polygon>
                            </g>
                            <g id="Group-13" transform="translate(161.847390, 0.000000)">
                                <mask id="mask-8" fill="white">
                                    <use xlink:href="#path-7"></use>
                                </mask>
                                <g id="Clip-12"></g>
                                <polygon id="Fill-11" fill="#1D1F1E" mask="url(#mask-8)" points="0.58526506 0.000625 0.58526506 9.628125 0.58526506 15.000625 14.849 15.000625 14.849 0.000625"></polygon>
                            </g>
                            <g id="Group-16" transform="translate(242.771084, 0.000000)">
                                <mask id="mask-10" fill="white">
                                    <use xlink:href="#path-9"></use>
                                </mask>
                                <g id="Clip-15"></g>
                                <polygon id="Fill-14" fill="#CEE1EF" mask="url(#mask-10)" points="14.629012 0.000625 0.015437751 0.000625 0.015437751 15.000625 14.2966024 15.000625 14.5667631 2.768125"></polygon>
                            </g>
                            <polygon id="Fill-17" fill="#F1EFEE" points="149.260643 7.10625 149.260643 15 162.43253 15 162.43253 9.62875"></polygon>
                            <polygon id="Fill-19" fill="#4182C3" points="162.432655 9.62825 162.432655 0.00075 149.260767 0.00075 149.260767 7.10575"></polygon>
                            <g id="Group-23" transform="translate(219.116466, 0.000000)">
                                <mask id="mask-12" fill="white">
                                    <use xlink:href="#path-11"></use>
                                </mask>
                                <g id="Clip-22"></g>
                                <polygon id="Fill-21" fill="#4182C3" mask="url(#mask-12)" points="0.924522088 0.000625 0.924522088 15.000625 17.2486988 15.000625 21.2923936 0.000625"></polygon>
                            </g>
                            <g id="Group-26" transform="translate(236.301205, 0.000000)">
                                <mask id="mask-14" fill="white">
                                    <use xlink:href="#path-13"></use>
                                </mask>
                                <g id="Clip-25"></g>
                                <polygon id="Fill-24" fill="#8ABBDE" mask="url(#mask-14)" points="4.10802811 0.000625 0.0643333333 15.000625 6.48469478 15.000625 6.48469478 0.000625"></polygon>
                            </g>
                            <mask id="mask-16" fill="white">
                                <use xlink:href="#path-15"></use>
                            </mask>
                            <g id="Clip-28"></g>
                            <polygon id="Fill-27" fill="#CEE1EF" mask="url(#mask-16)" points="176.696265 15 220.040241 15 220.040241 0 176.696265 0"></polygon>
                            <polygon id="Fill-29" fill="#2A4C72" mask="url(#mask-16)" points="22.7308434 15 75.9910843 15 75.9910843 0 22.7308434 0"></polygon>
                            <polygon id="Fill-30" fill="#8ABBDE" mask="url(#mask-16)" points="75.9910843 15 113.711486 15 113.711486 0 75.9910843 0"></polygon>
                            <polygon id="Fill-31" fill="#8ABBDE" mask="url(#mask-16)" points="363.145703 15 400.866104 15 400.866104 0 363.145703 0"></polygon>
                            <polygon id="Fill-32" fill="#8ABBDE" mask="url(#mask-16)" points="0.000497991968 0.000625 0.000497991968 15.000625 8.14391165 15.000625 8.30700402 0.000625"></polygon>
                            <polygon id="Fill-33" fill="#F1EFEE" mask="url(#mask-16)" points="8.30687952 0.000625 8.14378715 15.000625 22.7312169 15.000625 22.7312169 0.000625"></polygon>
                            <polygon id="Fill-34" fill="#336194" mask="url(#mask-16)" points="272.164811 3.974 272.164811 15.00025 303.498466 15.00025 303.498466 11.669"></polygon>
                            <polygon id="Fill-35" fill="#2A4C72" mask="url(#mask-16)" points="303.498341 0.000625 303.498341 11.669375 303.498341 15.000625 331.643602 15.000625 331.207859 0.000625"></polygon>
                            <polygon id="Fill-36" fill="#336194" mask="url(#mask-16)" points="344.187647 0.000625 344.783992 15.000625 363.146201 15.000625 363.146201 0.000625"></polygon>
                            <polygon id="Fill-37" fill="#F1EFEE" mask="url(#mask-16)" points="303.498341 11.66925 303.498341 0.0005 272.164687 0.0005 272.164687 3.97425"></polygon>
                            <polygon id="Fill-38" fill="#F9F7F6" mask="url(#mask-16)" points="331.207735 0.000625 331.644723 15.000625 344.784241 15.000625 344.187896 0.000625"></polygon>
                            <polygon id="Fill-39" fill="#336194" mask="url(#mask-16)" points="149.260643 0.000625 113.711486 0.000625 113.711486 15.000625 149.260643 15.000625 149.260643 7.106875"></polygon>
                            <polygon id="Fill-40" fill="#CEE1EF" mask="url(#mask-16)" points="527.395406 8.471 542.986289 8.471 542.421068 0.001 517.967173 0.001 517.958458 8.471"></polygon>
                            <polygon id="Fill-41" fill="#4182C3" mask="url(#mask-16)" points="560.082229 4.541625 560.082229 0.000375 542.420944 0.000375 542.98741 8.471625"></polygon>
                            <polygon id="Fill-42" fill="#2A4C72" mask="url(#mask-16)" points="517.966799 0.000625 491.84712 0.000625 491.84712 15.000625 517.950614 15.000625 517.950614 8.470625"></polygon>
                            <polygon id="Fill-43" fill="#1E1E1F" mask="url(#mask-16)" points="517.958333 8.471 517.967048 0.001 517.950863 8.471"></polygon>
                            <polygon id="Fill-44" fill="#336194" mask="url(#mask-16)" points="542.986787 8.471 542.986787 15.001 560.081606 15.001 560.081606 4.541"></polygon>
                            <polygon id="Fill-45" fill="#8ABBDE" mask="url(#mask-16)" points="527.395406 8.471 517.958458 8.471 517.950988 15.001 542.986289 15.001 542.986289 8.471"></polygon>
                            <polygon id="Fill-46" fill="#3F82C3" mask="url(#mask-16)" points="517.950988 8.471 517.950988 15.001 517.958458 8.471"></polygon>
                            <path d="M614.744566,0.000625 C609.84557,2.714375 604.973964,8.499375 602.644606,15.000625 L620.000871,15.000625 L620.000871,0.000625 L614.744566,0.000625 Z" id="Fill-47" fill="#4182C3" mask="url(#mask-16)"></path>
                            <polygon id="Fill-48" fill="#4182C3" mask="url(#mask-16)" points="423.744727 0.000625 420.364606 15.000625 438.884928 15.000625 438.884928 0.000625"></polygon>
                            <polygon id="Fill-49" fill="#336194" mask="url(#mask-16)" points="448.035157 0.000625 451.527325 15.000625 491.846 15.000625 491.846 0.000625"></polygon>
                            <polygon id="Fill-50" fill="#F9F7F6" mask="url(#mask-16)" points="400.865731 0.000625 400.865731 15.000625 420.364606 15.000625 423.744727 0.000625"></polygon>
                            <polygon id="Fill-51" fill="#8ABBDE" mask="url(#mask-16)" points="438.885052 0.000625 438.885052 15.000625 451.526578 15.000625 448.035655 0.000625"></polygon>
                        </g>
                    </g>
                    <g id="Page-1-Copy" transform="translate(620.000000, 0.000000)">
                        <polygon id="Fill-1" fill="#4182C3" points="0 15 620 15 620 0 0 0"></polygon>
                        <g id="Group-52">
                            <g id="Group-4" transform="translate(573.935743, 0.000000)">
                                <mask id="mask-18" fill="white">
                                    <use xlink:href="#path-17"></use>
                                </mask>
                                <g id="Clip-3"></g>
                                <path d="M40.8088233,0.000625 L0.632076305,0.000625 L0.299666667,15.000625 L28.7088635,15.000625 C31.0382209,8.499375 35.9098273,2.714375 40.8088233,0.000625" id="Fill-2" fill="#336194" mask="url(#mask-18)"></path>
                            </g>
                            <g id="Group-7" transform="translate(256.465863, 0.000000)">
                                <mask id="mask-20" fill="white">
                                    <use xlink:href="#path-19"></use>
                                </mask>
                                <g id="Clip-6"></g>
                                <polygon id="Fill-5" fill="#4182C3" mask="url(#mask-20)" points="15.6989478 0.000625 0.983285141 0.000625 0.872481928 2.768125 0.602321285 15.000625 15.6989478 15.000625 15.6989478 3.974375"></polygon>
                            </g>
                            <g id="Group-10" transform="translate(559.995984, 0.000000)">
                                <mask id="mask-22" fill="white">
                                    <use xlink:href="#path-21"></use>
                                </mask>
                                <g id="Clip-9"></g>
                                <polygon id="Fill-8" fill="#CEE1EF" mask="url(#mask-22)" points="0.0862449799 0.000625 0.0862449799 4.541875 0.0862449799 15.000625 14.2391767 15.000625 14.5728313 0.000625"></polygon>
                            </g>
                            <g id="Group-13" transform="translate(161.847390, 0.000000)">
                                <mask id="mask-24" fill="white">
                                    <use xlink:href="#path-23"></use>
                                </mask>
                                <g id="Clip-12"></g>
                                <polygon id="Fill-11" fill="#1D1F1E" mask="url(#mask-24)" points="0.58526506 0.000625 0.58526506 9.628125 0.58526506 15.000625 14.849 15.000625 14.849 0.000625"></polygon>
                            </g>
                            <g id="Group-16" transform="translate(242.771084, 0.000000)">
                                <mask id="mask-26" fill="white">
                                    <use xlink:href="#path-25"></use>
                                </mask>
                                <g id="Clip-15"></g>
                                <polygon id="Fill-14" fill="#CEE1EF" mask="url(#mask-26)" points="14.629012 0.000625 0.015437751 0.000625 0.015437751 15.000625 14.2966024 15.000625 14.5667631 2.768125"></polygon>
                            </g>
                            <polygon id="Fill-17" fill="#F1EFEE" points="149.260643 7.10625 149.260643 15 162.43253 15 162.43253 9.62875"></polygon>
                            <polygon id="Fill-19" fill="#4182C3" points="162.432655 9.62825 162.432655 0.00075 149.260767 0.00075 149.260767 7.10575"></polygon>
                            <g id="Group-23" transform="translate(219.116466, 0.000000)">
                                <mask id="mask-28" fill="white">
                                    <use xlink:href="#path-27"></use>
                                </mask>
                                <g id="Clip-22"></g>
                                <polygon id="Fill-21" fill="#4182C3" mask="url(#mask-28)" points="0.924522088 0.000625 0.924522088 15.000625 17.2486988 15.000625 21.2923936 0.000625"></polygon>
                            </g>
                            <g id="Group-26" transform="translate(236.301205, 0.000000)">
                                <mask id="mask-30" fill="white">
                                    <use xlink:href="#path-29"></use>
                                </mask>
                                <g id="Clip-25"></g>
                                <polygon id="Fill-24" fill="#8ABBDE" mask="url(#mask-30)" points="4.10802811 0.000625 0.0643333333 15.000625 6.48469478 15.000625 6.48469478 0.000625"></polygon>
                            </g>
                            <mask id="mask-32" fill="white">
                                <use xlink:href="#path-31"></use>
                            </mask>
                            <g id="Clip-28"></g>
                            <polygon id="Fill-27" fill="#CEE1EF" mask="url(#mask-32)" points="176.696265 15 220.040241 15 220.040241 0 176.696265 0"></polygon>
                            <polygon id="Fill-29" fill="#2A4C72" mask="url(#mask-32)" points="22.7308434 15 75.9910843 15 75.9910843 0 22.7308434 0"></polygon>
                            <polygon id="Fill-30" fill="#8ABBDE" mask="url(#mask-32)" points="75.9910843 15 113.711486 15 113.711486 0 75.9910843 0"></polygon>
                            <polygon id="Fill-31" fill="#8ABBDE" mask="url(#mask-32)" points="363.145703 15 400.866104 15 400.866104 0 363.145703 0"></polygon>
                            <polygon id="Fill-32" fill="#8ABBDE" mask="url(#mask-32)" points="0.000497991968 0.000625 0.000497991968 15.000625 8.14391165 15.000625 8.30700402 0.000625"></polygon>
                            <polygon id="Fill-33" fill="#F1EFEE" mask="url(#mask-32)" points="8.30687952 0.000625 8.14378715 15.000625 22.7312169 15.000625 22.7312169 0.000625"></polygon>
                            <polygon id="Fill-34" fill="#336194" mask="url(#mask-32)" points="272.164811 3.974 272.164811 15.00025 303.498466 15.00025 303.498466 11.669"></polygon>
                            <polygon id="Fill-35" fill="#2A4C72" mask="url(#mask-32)" points="303.498341 0.000625 303.498341 11.669375 303.498341 15.000625 331.643602 15.000625 331.207859 0.000625"></polygon>
                            <polygon id="Fill-36" fill="#336194" mask="url(#mask-32)" points="344.187647 0.000625 344.783992 15.000625 363.146201 15.000625 363.146201 0.000625"></polygon>
                            <polygon id="Fill-37" fill="#F1EFEE" mask="url(#mask-32)" points="303.498341 11.66925 303.498341 0.0005 272.164687 0.0005 272.164687 3.97425"></polygon>
                            <polygon id="Fill-38" fill="#F9F7F6" mask="url(#mask-32)" points="331.207735 0.000625 331.644723 15.000625 344.784241 15.000625 344.187896 0.000625"></polygon>
                            <polygon id="Fill-39" fill="#336194" mask="url(#mask-32)" points="149.260643 0.000625 113.711486 0.000625 113.711486 15.000625 149.260643 15.000625 149.260643 7.106875"></polygon>
                            <polygon id="Fill-40" fill="#CEE1EF" mask="url(#mask-32)" points="527.395406 8.471 542.986289 8.471 542.421068 0.001 517.967173 0.001 517.958458 8.471"></polygon>
                            <polygon id="Fill-41" fill="#4182C3" mask="url(#mask-32)" points="560.082229 4.541625 560.082229 0.000375 542.420944 0.000375 542.98741 8.471625"></polygon>
                            <polygon id="Fill-42" fill="#2A4C72" mask="url(#mask-32)" points="517.966799 0.000625 491.84712 0.000625 491.84712 15.000625 517.950614 15.000625 517.950614 8.470625"></polygon>
                            <polygon id="Fill-43" fill="#1E1E1F" mask="url(#mask-32)" points="517.958333 8.471 517.967048 0.001 517.950863 8.471"></polygon>
                            <polygon id="Fill-44" fill="#336194" mask="url(#mask-32)" points="542.986787 8.471 542.986787 15.001 560.081606 15.001 560.081606 4.541"></polygon>
                            <polygon id="Fill-45" fill="#8ABBDE" mask="url(#mask-32)" points="527.395406 8.471 517.958458 8.471 517.950988 15.001 542.986289 15.001 542.986289 8.471"></polygon>
                            <polygon id="Fill-46" fill="#3F82C3" mask="url(#mask-32)" points="517.950988 8.471 517.950988 15.001 517.958458 8.471"></polygon>
                            <path d="M614.744566,0.000625 C609.84557,2.714375 604.973964,8.499375 602.644606,15.000625 L620.000871,15.000625 L620.000871,0.000625 L614.744566,0.000625 Z" id="Fill-47" fill="#4182C3" mask="url(#mask-32)"></path>
                            <polygon id="Fill-48" fill="#4182C3" mask="url(#mask-32)" points="423.744727 0.000625 420.364606 15.000625 438.884928 15.000625 438.884928 0.000625"></polygon>
                            <polygon id="Fill-49" fill="#336194" mask="url(#mask-32)" points="448.035157 0.000625 451.527325 15.000625 491.846 15.000625 491.846 0.000625"></polygon>
                            <polygon id="Fill-50" fill="#F9F7F6" mask="url(#mask-32)" points="400.865731 0.000625 400.865731 15.000625 420.364606 15.000625 423.744727 0.000625"></polygon>
                            <polygon id="Fill-51" fill="#8ABBDE" mask="url(#mask-32)" points="438.885052 0.000625 438.885052 15.000625 451.526578 15.000625 448.035655 0.000625"></polygon>
                        </g>
                    </g>
                </g>
            </g>
        </g>
    </g>
</svg>